<svg width="209" height="67" viewBox="0 0 209 67" fill="none" xmlns="http://www.w3.org/2000/svg">
<path fill-rule="evenodd" clip-rule="evenodd" d="M14.5441 11.7524C13.9583 12.3382 13.9583 13.281 13.9583 15.1667V54.625C13.9583 56.5106 13.9583 57.4534 14.5441 58.0392C15.1299 58.625 16.0727 58.625 17.9583 58.625H49.0416C50.9273 58.625 51.8701 58.625 52.4559 58.0392C53.0416 57.4534 53.0416 56.5106 53.0416 54.625V15.1667C53.0416 13.281 53.0416 12.3382 52.4559 11.7524C51.8701 11.1667 50.9273 11.1667 49.0416 11.1667H17.9583C16.0727 11.1667 15.1299 11.1667 14.5441 11.7524ZM25.125 24.125C24.5727 24.125 24.125 24.5727 24.125 25.125C24.125 25.6773 24.5727 26.125 25.125 26.125H41.875C42.4273 26.125 42.875 25.6773 42.875 25.125C42.875 24.5727 42.4273 24.125 41.875 24.125H25.125ZM25.125 35.2917C24.5727 35.2917 24.125 35.7394 24.125 36.2917C24.125 36.8439 24.5727 37.2917 25.125 37.2917H41.875C42.4273 37.2917 42.875 36.8439 42.875 36.2917C42.875 35.7394 42.4273 35.2917 41.875 35.2917H25.125ZM25.125 46.4583C24.5727 46.4583 24.125 46.906 24.125 47.4583C24.125 48.0106 24.5727 48.4583 25.125 48.4583H36.2916C36.8439 48.4583 37.2916 48.0106 37.2916 47.4583C37.2916 46.906 36.8439 46.4583 36.2916 46.4583H25.125Z" fill="#31B380"/>
<path d="M76.74 21.8C77.5533 21.9733 78.2067 22.38 78.7 23.02C79.1933 23.6467 79.44 24.3667 79.44 25.18C79.44 26.3533 79.0267 27.2867 78.2 27.98C77.3867 28.66 76.2467 29 74.78 29H68.24V14.96H74.56C75.9867 14.96 77.1 15.2867 77.9 15.94C78.7133 16.5933 79.12 17.48 79.12 18.6C79.12 19.4267 78.9 20.1133 78.46 20.66C78.0333 21.2067 77.46 21.5867 76.74 21.8ZM71.66 20.64H73.9C74.46 20.64 74.8867 20.52 75.18 20.28C75.4867 20.0267 75.64 19.66 75.64 19.18C75.64 18.7 75.4867 18.3333 75.18 18.08C74.8867 17.8267 74.46 17.7 73.9 17.7H71.66V20.64ZM74.18 26.24C74.7533 26.24 75.1933 26.1133 75.5 25.86C75.82 25.5933 75.98 25.2133 75.98 24.72C75.98 24.2267 75.8133 23.84 75.48 23.56C75.16 23.28 74.7133 23.14 74.14 23.14H71.66V26.24H74.18ZM86.5036 29.16C85.4103 29.16 84.4236 28.9267 83.5436 28.46C82.6769 27.9933 81.9903 27.3267 81.4836 26.46C80.9903 25.5933 80.7436 24.58 80.7436 23.42C80.7436 22.2733 80.9969 21.2667 81.5036 20.4C82.0103 19.52 82.7036 18.8467 83.5836 18.38C84.4636 17.9133 85.4503 17.68 86.5436 17.68C87.6369 17.68 88.6236 17.9133 89.5036 18.38C90.3836 18.8467 91.0769 19.52 91.5836 20.4C92.0903 21.2667 92.3436 22.2733 92.3436 23.42C92.3436 24.5667 92.0836 25.58 91.5636 26.46C91.0569 27.3267 90.3569 27.9933 89.4636 28.46C88.5836 28.9267 87.5969 29.16 86.5036 29.16ZM86.5036 26.2C87.1569 26.2 87.7103 25.96 88.1636 25.48C88.6303 25 88.8636 24.3133 88.8636 23.42C88.8636 22.5267 88.6369 21.84 88.1836 21.36C87.7436 20.88 87.1969 20.64 86.5436 20.64C85.8769 20.64 85.3236 20.88 84.8836 21.36C84.4436 21.8267 84.2236 22.5133 84.2236 23.42C84.2236 24.3133 84.4369 25 84.8636 25.48C85.3036 25.96 85.8503 26.2 86.5036 26.2ZM99.238 29.16C98.1446 29.16 97.158 28.9267 96.278 28.46C95.4113 27.9933 94.7246 27.3267 94.218 26.46C93.7246 25.5933 93.478 24.58 93.478 23.42C93.478 22.2733 93.7313 21.2667 94.238 20.4C94.7446 19.52 95.438 18.8467 96.318 18.38C97.198 17.9133 98.1846 17.68 99.278 17.68C100.371 17.68 101.358 17.9133 102.238 18.38C103.118 18.8467 103.811 19.52 104.318 20.4C104.825 21.2667 105.078 22.2733 105.078 23.42C105.078 24.5667 104.818 25.58 104.298 26.46C103.791 27.3267 103.091 27.9933 102.198 28.46C101.318 28.9267 100.331 29.16 99.238 29.16ZM99.238 26.2C99.8913 26.2 100.445 25.96 100.898 25.48C101.365 25 101.598 24.3133 101.598 23.42C101.598 22.5267 101.371 21.84 100.918 21.36C100.478 20.88 99.9313 20.64 99.278 20.64C98.6113 20.64 98.058 20.88 97.618 21.36C97.178 21.8267 96.958 22.5133 96.958 23.42C96.958 24.3133 97.1713 25 97.598 25.48C98.038 25.96 98.5846 26.2 99.238 26.2ZM113.712 29L110.312 24.32V29H106.892V14.2H110.312V22.38L113.692 17.84H117.912L113.272 23.44L117.952 29H113.712ZM120.976 16.68C120.376 16.68 119.882 16.5067 119.496 16.16C119.122 15.8 118.936 15.36 118.936 14.84C118.936 14.3067 119.122 13.8667 119.496 13.52C119.882 13.16 120.376 12.98 120.976 12.98C121.562 12.98 122.042 13.16 122.416 13.52C122.802 13.8667 122.996 14.3067 122.996 14.84C122.996 15.36 122.802 15.8 122.416 16.16C122.042 16.5067 121.562 16.68 120.976 16.68ZM122.676 17.84V29H119.256V17.84H122.676ZM131.954 17.72C133.261 17.72 134.301 18.1467 135.074 19C135.861 19.84 136.254 21 136.254 22.48V29H132.854V22.94C132.854 22.1933 132.661 21.6133 132.274 21.2C131.887 20.7867 131.367 20.58 130.714 20.58C130.061 20.58 129.541 20.7867 129.154 21.2C128.767 21.6133 128.574 22.1933 128.574 22.94V29H125.154V17.84H128.574V19.32C128.921 18.8267 129.387 18.44 129.974 18.16C130.561 17.8667 131.221 17.72 131.954 17.72ZM142.871 17.68C143.657 17.68 144.344 17.84 144.931 18.16C145.531 18.48 145.991 18.9 146.311 19.42V17.84H149.731V28.98C149.731 30.0067 149.524 30.9333 149.111 31.76C148.711 32.6 148.091 33.2667 147.251 33.76C146.424 34.2533 145.391 34.5 144.151 34.5C142.497 34.5 141.157 34.1067 140.131 33.32C139.104 32.5467 138.517 31.4933 138.371 30.16H141.751C141.857 30.5867 142.111 30.92 142.511 31.16C142.911 31.4133 143.404 31.54 143.991 31.54C144.697 31.54 145.257 31.3333 145.671 30.92C146.097 30.52 146.311 29.8733 146.311 28.98V27.4C145.977 27.92 145.517 28.3467 144.931 28.68C144.344 29 143.657 29.16 142.871 29.16C141.951 29.16 141.117 28.9267 140.371 28.46C139.624 27.98 139.031 27.3067 138.591 26.44C138.164 25.56 137.951 24.5467 137.951 23.4C137.951 22.2533 138.164 21.2467 138.591 20.38C139.031 19.5133 139.624 18.8467 140.371 18.38C141.117 17.9133 141.951 17.68 142.871 17.68ZM146.311 23.42C146.311 22.5667 146.071 21.8933 145.591 21.4C145.124 20.9067 144.551 20.66 143.871 20.66C143.191 20.66 142.611 20.9067 142.131 21.4C141.664 21.88 141.431 22.5467 141.431 23.4C141.431 24.2533 141.664 24.9333 142.131 25.44C142.611 25.9333 143.191 26.18 143.871 26.18C144.551 26.18 145.124 25.9333 145.591 25.44C146.071 24.9467 146.311 24.2733 146.311 23.42ZM168.603 14.96V29H165.183V23.22H159.863V29H156.443V14.96H159.863V20.46H165.183V14.96H168.603ZM176.152 29.16C175.059 29.16 174.072 28.9267 173.192 28.46C172.325 27.9933 171.639 27.3267 171.132 26.46C170.639 25.5933 170.392 24.58 170.392 23.42C170.392 22.2733 170.645 21.2667 171.152 20.4C171.659 19.52 172.352 18.8467 173.232 18.38C174.112 17.9133 175.099 17.68 176.192 17.68C177.285 17.68 178.272 17.9133 179.152 18.38C180.032 18.8467 180.725 19.52 181.232 20.4C181.739 21.2667 181.992 22.2733 181.992 23.42C181.992 24.5667 181.732 25.58 181.212 26.46C180.705 27.3267 180.005 27.9933 179.112 28.46C178.232 28.9267 177.245 29.16 176.152 29.16ZM176.152 26.2C176.805 26.2 177.359 25.96 177.812 25.48C178.279 25 178.512 24.3133 178.512 23.42C178.512 22.5267 178.285 21.84 177.832 21.36C177.392 20.88 176.845 20.64 176.192 20.64C175.525 20.64 174.972 20.88 174.532 21.36C174.092 21.8267 173.872 22.5133 173.872 23.42C173.872 24.3133 174.085 25 174.512 25.48C174.952 25.96 175.499 26.2 176.152 26.2ZM190.026 26.1V29H188.286C187.046 29 186.08 28.7 185.386 28.1C184.693 27.4867 184.346 26.4933 184.346 25.12V20.68H182.986V17.84H184.346V15.12H187.766V17.84H190.006V20.68H187.766V25.16C187.766 25.4933 187.846 25.7333 188.006 25.88C188.166 26.0267 188.433 26.1 188.806 26.1H190.026ZM202.451 23.24C202.451 23.56 202.431 23.8933 202.391 24.24H194.651C194.705 24.9333 194.925 25.4667 195.311 25.84C195.711 26.2 196.198 26.38 196.771 26.38C197.625 26.38 198.218 26.02 198.551 25.3H202.191C202.005 26.0333 201.665 26.6933 201.171 27.28C200.691 27.8667 200.085 28.3267 199.351 28.66C198.618 28.9933 197.798 29.16 196.891 29.16C195.798 29.16 194.825 28.9267 193.971 28.46C193.118 27.9933 192.451 27.3267 191.971 26.46C191.491 25.5933 191.251 24.58 191.251 23.42C191.251 22.26 191.485 21.2467 191.951 20.38C192.431 19.5133 193.098 18.8467 193.951 18.38C194.805 17.9133 195.785 17.68 196.891 17.68C197.971 17.68 198.931 17.9067 199.771 18.36C200.611 18.8133 201.265 19.46 201.731 20.3C202.211 21.14 202.451 22.12 202.451 23.24ZM198.951 22.34C198.951 21.7533 198.751 21.2867 198.351 20.94C197.951 20.5933 197.451 20.42 196.851 20.42C196.278 20.42 195.791 20.5867 195.391 20.92C195.005 21.2533 194.765 21.7267 194.671 22.34H198.951ZM207.676 14.2V29H204.256V14.2H207.676Z" fill="#3C3C3C"/>
<path d="M67.516 50.812C67.516 49.996 67.7 49.264 68.068 48.616C68.436 47.96 68.936 47.448 69.568 47.08C70.208 46.712 70.916 46.528 71.692 46.528C72.604 46.528 73.4 46.748 74.08 47.188C74.76 47.628 75.256 48.252 75.568 49.06H74.26C74.028 48.556 73.692 48.168 73.252 47.896C72.82 47.624 72.3 47.488 71.692 47.488C71.108 47.488 70.584 47.624 70.12 47.896C69.656 48.168 69.292 48.556 69.028 49.06C68.764 49.556 68.632 50.14 68.632 50.812C68.632 51.476 68.764 52.06 69.028 52.564C69.292 53.06 69.656 53.444 70.12 53.716C70.584 53.988 71.108 54.124 71.692 54.124C72.3 54.124 72.82 53.992 73.252 53.728C73.692 53.456 74.028 53.068 74.26 52.564H75.568C75.256 53.364 74.76 53.984 74.08 54.424C73.4 54.856 72.604 55.072 71.692 55.072C70.916 55.072 70.208 54.892 69.568 54.532C68.936 54.164 68.436 53.656 68.068 53.008C67.7 52.36 67.516 51.628 67.516 50.812ZM83.1935 51.46C83.1935 51.668 83.1815 51.888 83.1575 52.12H77.9015C77.9415 52.768 78.1615 53.276 78.5615 53.644C78.9695 54.004 79.4615 54.184 80.0375 54.184C80.5095 54.184 80.9015 54.076 81.2135 53.86C81.5335 53.636 81.7575 53.34 81.8855 52.972H83.0615C82.8855 53.604 82.5335 54.12 82.0055 54.52C81.4775 54.912 80.8215 55.108 80.0375 55.108C79.4135 55.108 78.8535 54.968 78.3575 54.688C77.8695 54.408 77.4855 54.012 77.2055 53.5C76.9255 52.98 76.7855 52.38 76.7855 51.7C76.7855 51.02 76.9215 50.424 77.1935 49.912C77.4655 49.4 77.8455 49.008 78.3335 48.736C78.8295 48.456 79.3975 48.316 80.0375 48.316C80.6615 48.316 81.2135 48.452 81.6935 48.724C82.1735 48.996 82.5415 49.372 82.7975 49.852C83.0615 50.324 83.1935 50.86 83.1935 51.46ZM82.0655 51.232C82.0655 50.816 81.9735 50.46 81.7895 50.164C81.6055 49.86 81.3535 49.632 81.0335 49.48C80.7215 49.32 80.3735 49.24 79.9895 49.24C79.4375 49.24 78.9655 49.416 78.5735 49.768C78.1895 50.12 77.9695 50.608 77.9135 51.232H82.0655ZM85.7269 49.636C85.9429 49.26 86.2629 48.948 86.6869 48.7C87.1189 48.444 87.6189 48.316 88.1869 48.316C88.7709 48.316 89.2989 48.456 89.7709 48.736C90.2509 49.016 90.6269 49.412 90.8989 49.924C91.1709 50.428 91.3069 51.016 91.3069 51.688C91.3069 52.352 91.1709 52.944 90.8989 53.464C90.6269 53.984 90.2509 54.388 89.7709 54.676C89.2989 54.964 88.7709 55.108 88.1869 55.108C87.6269 55.108 87.1309 54.984 86.6989 54.736C86.2749 54.48 85.9509 54.164 85.7269 53.788V58.12H84.6349V48.424H85.7269V49.636ZM90.1909 51.688C90.1909 51.192 90.0909 50.76 89.8909 50.392C89.6909 50.024 89.4189 49.744 89.0749 49.552C88.7389 49.36 88.3669 49.264 87.9589 49.264C87.5589 49.264 87.1869 49.364 86.8429 49.564C86.5069 49.756 86.2349 50.04 86.0269 50.416C85.8269 50.784 85.7269 51.212 85.7269 51.7C85.7269 52.196 85.8269 52.632 86.0269 53.008C86.2349 53.376 86.5069 53.66 86.8429 53.86C87.1869 54.052 87.5589 54.148 87.9589 54.148C88.3669 54.148 88.7389 54.052 89.0749 53.86C89.4189 53.66 89.6909 53.376 89.8909 53.008C90.0909 52.632 90.1909 52.192 90.1909 51.688ZM92.3363 51.688C92.3363 51.016 92.4723 50.428 92.7443 49.924C93.0163 49.412 93.3883 49.016 93.8603 48.736C94.3403 48.456 94.8723 48.316 95.4563 48.316C96.0323 48.316 96.5323 48.44 96.9563 48.688C97.3803 48.936 97.6963 49.248 97.9043 49.624V48.424H99.0083V55H97.9043V53.776C97.6883 54.16 97.3643 54.48 96.9323 54.736C96.5083 54.984 96.0123 55.108 95.4443 55.108C94.8603 55.108 94.3323 54.964 93.8603 54.676C93.3883 54.388 93.0163 53.984 92.7443 53.464C92.4723 52.944 92.3363 52.352 92.3363 51.688ZM97.9043 51.7C97.9043 51.204 97.8043 50.772 97.6043 50.404C97.4043 50.036 97.1323 49.756 96.7883 49.564C96.4523 49.364 96.0803 49.264 95.6723 49.264C95.2643 49.264 94.8923 49.36 94.5563 49.552C94.2203 49.744 93.9523 50.024 93.7523 50.392C93.5523 50.76 93.4523 51.192 93.4523 51.688C93.4523 52.192 93.5523 52.632 93.7523 53.008C93.9523 53.376 94.2203 53.66 94.5563 53.86C94.8923 54.052 95.2643 54.148 95.6723 54.148C96.0803 54.148 96.4523 54.052 96.7883 53.86C97.1323 53.66 97.4043 53.376 97.6043 53.008C97.8043 52.632 97.9043 52.196 97.9043 51.7ZM102.186 49.324V53.2C102.186 53.52 102.254 53.748 102.39 53.884C102.526 54.012 102.762 54.076 103.098 54.076H103.902V55H102.918C102.31 55 101.854 54.86 101.55 54.58C101.246 54.3 101.094 53.84 101.094 53.2V49.324H100.242V48.424H101.094V46.768H102.186V48.424H103.902V49.324H102.186ZM111.028 46.636C111.94 46.636 112.728 46.808 113.392 47.152C114.064 47.488 114.576 47.972 114.928 48.604C115.288 49.236 115.468 49.98 115.468 50.836C115.468 51.692 115.288 52.436 114.928 53.068C114.576 53.692 114.064 54.172 113.392 54.508C112.728 54.836 111.94 55 111.028 55H108.424V46.636H111.028ZM111.028 54.1C112.108 54.1 112.932 53.816 113.5 53.248C114.068 52.672 114.352 51.868 114.352 50.836C114.352 49.796 114.064 48.984 113.488 48.4C112.92 47.816 112.1 47.524 111.028 47.524H109.516V54.1H111.028ZM116.5 51.688C116.5 51.016 116.636 50.428 116.908 49.924C117.18 49.412 117.552 49.016 118.024 48.736C118.504 48.456 119.036 48.316 119.62 48.316C120.196 48.316 120.696 48.44 121.12 48.688C121.544 48.936 121.86 49.248 122.068 49.624V48.424H123.172V55H122.068V53.776C121.852 54.16 121.528 54.48 121.096 54.736C120.672 54.984 120.176 55.108 119.608 55.108C119.024 55.108 118.496 54.964 118.024 54.676C117.552 54.388 117.18 53.984 116.908 53.464C116.636 52.944 116.5 52.352 116.5 51.688ZM122.068 51.7C122.068 51.204 121.968 50.772 121.768 50.404C121.568 50.036 121.296 49.756 120.952 49.564C120.616 49.364 120.244 49.264 119.836 49.264C119.428 49.264 119.056 49.36 118.72 49.552C118.384 49.744 118.116 50.024 117.916 50.392C117.716 50.76 117.616 51.192 117.616 51.688C117.616 52.192 117.716 52.632 117.916 53.008C118.116 53.376 118.384 53.66 118.72 53.86C119.056 54.052 119.428 54.148 119.836 54.148C120.244 54.148 120.616 54.052 120.952 53.86C121.296 53.66 121.568 53.376 121.768 53.008C121.968 52.632 122.068 52.196 122.068 51.7ZM128.222 48.304C129.022 48.304 129.67 48.548 130.166 49.036C130.662 49.516 130.91 50.212 130.91 51.124V55H129.83V51.28C129.83 50.624 129.666 50.124 129.338 49.78C129.01 49.428 128.562 49.252 127.994 49.252C127.418 49.252 126.958 49.432 126.614 49.792C126.278 50.152 126.11 50.676 126.11 51.364V55H125.018V48.424H126.11V49.36C126.326 49.024 126.618 48.764 126.986 48.58C127.362 48.396 127.774 48.304 128.222 48.304ZM140.837 53.14H137.189L136.517 55H135.365L138.389 46.684H139.649L142.661 55H141.509L140.837 53.14ZM140.525 52.252L139.013 48.028L137.501 52.252H140.525ZM151.887 48.304C152.399 48.304 152.855 48.412 153.255 48.628C153.655 48.836 153.971 49.152 154.203 49.576C154.435 50 154.551 50.516 154.551 51.124V55H153.471V51.28C153.471 50.624 153.307 50.124 152.979 49.78C152.659 49.428 152.223 49.252 151.671 49.252C151.103 49.252 150.651 49.436 150.315 49.804C149.979 50.164 149.811 50.688 149.811 51.376V55H148.731V51.28C148.731 50.624 148.567 50.124 148.239 49.78C147.919 49.428 147.483 49.252 146.931 49.252C146.363 49.252 145.911 49.436 145.575 49.804C145.239 50.164 145.071 50.688 145.071 51.376V55H143.979V48.424H145.071V49.372C145.287 49.028 145.575 48.764 145.935 48.58C146.303 48.396 146.707 48.304 147.147 48.304C147.699 48.304 148.187 48.428 148.611 48.676C149.035 48.924 149.351 49.288 149.559 49.768C149.743 49.304 150.047 48.944 150.471 48.688C150.895 48.432 151.367 48.304 151.887 48.304ZM155.934 51.688C155.934 51.016 156.07 50.428 156.342 49.924C156.614 49.412 156.986 49.016 157.458 48.736C157.938 48.456 158.47 48.316 159.054 48.316C159.63 48.316 160.13 48.44 160.554 48.688C160.978 48.936 161.294 49.248 161.502 49.624V48.424H162.606V55H161.502V53.776C161.286 54.16 160.962 54.48 160.53 54.736C160.106 54.984 159.61 55.108 159.042 55.108C158.458 55.108 157.93 54.964 157.458 54.676C156.986 54.388 156.614 53.984 156.342 53.464C156.07 52.944 155.934 52.352 155.934 51.688ZM161.502 51.7C161.502 51.204 161.402 50.772 161.202 50.404C161.002 50.036 160.73 49.756 160.386 49.564C160.05 49.364 159.678 49.264 159.27 49.264C158.862 49.264 158.49 49.36 158.154 49.552C157.818 49.744 157.55 50.024 157.35 50.392C157.15 50.76 157.05 51.192 157.05 51.688C157.05 52.192 157.15 52.632 157.35 53.008C157.55 53.376 157.818 53.66 158.154 53.86C158.49 54.052 158.862 54.148 159.27 54.148C159.678 54.148 160.05 54.052 160.386 53.86C160.73 53.66 161.002 53.376 161.202 53.008C161.402 52.632 161.502 52.196 161.502 51.7ZM167.655 48.304C168.455 48.304 169.103 48.548 169.599 49.036C170.095 49.516 170.343 50.212 170.343 51.124V55H169.263V51.28C169.263 50.624 169.099 50.124 168.771 49.78C168.443 49.428 167.995 49.252 167.427 49.252C166.851 49.252 166.391 49.432 166.047 49.792C165.711 50.152 165.543 50.676 165.543 51.364V55H164.451V48.424H165.543V49.36C165.759 49.024 166.051 48.764 166.419 48.58C166.795 48.396 167.207 48.304 167.655 48.304Z" fill="black"/>
</svg>
